HIERARCHY
ROOT Hips
{
	OFFSET 0.000000 71.427986 0.000000
	CHANNELS 6 Xposition Yposition Zposition Xrotation Yrotation Zrotation
	JOINT Pelvis
	{
		OFFSET 0.000000 0.000000 0.000000
		CHANNELS 3 Xrotation Yrotation Zrotation
		JOINT LeftUpLeg
		{
			OFFSET 6.797100 -2.508499 -1.318700
			CHANNELS 3 Xrotation Yrotation Zrotation
			JOINT LeftLeg
			{
				OFFSET 0.069008 -29.241863 0.690200
				CHANNELS 3 Xrotation Yrotation Zrotation
				JOINT LeftFoot
				{
					OFFSET -0.069008 -29.568123 -0.266800
					CHANNELS 3 Xrotation Yrotation Zrotation
					JOINT LeftToeBase
					{
						OFFSET 3.145500 -8.631000 16.059900
						CHANNELS 3 Xrotation Yrotation Zrotation
						End Site
						{
							OFFSET 0.000000 18.501587 0.000000
						}
					}
				}
			}
			JOINT Left_ShortSleeve
			{
				OFFSET 0.265923 -10.480953 1.153800
				CHANNELS 3 Xrotation Yrotation Zrotation
				End Site
				{
					OFFSET 1.725763 19.823879 0.000000
				}
			}
		}
		JOINT RightUpLeg
		{
			OFFSET -6.797100 -2.508499 -1.318700
			CHANNELS 3 Xrotation Yrotation Zrotation
			JOINT RightLeg
			{
				OFFSET -0.082453 -29.241932 0.688000
				CHANNELS 3 Xrotation Yrotation Zrotation
				JOINT RightFoot
				{
					OFFSET 0.082453 -29.568058 -0.264600
					CHANNELS 3 Xrotation Yrotation Zrotation
					JOINT RightToeBase
					{
						OFFSET -3.115300 -8.682800 16.113400
						CHANNELS 3 Xrotation Yrotation Zrotation
						End Site
						{
							OFFSET 0.000000 18.567114 0.000000
						}
					}
				}
			}
			JOINT Right_ShortSleeve
			{
				OFFSET -0.265923 -10.480953 1.153800
				CHANNELS 3 Xrotation Yrotation Zrotation
				End Site
				{
					OFFSET -1.725766 19.823910 0.000000
				}
			}
		}
	}
	JOINT Spine
	{
		OFFSET 0.000000 13.368103 0.470500
		CHANNELS 3 Xrotation Yrotation Zrotation
		JOINT Spine1
		{
			OFFSET 0.147000 13.837402 0.538800
			CHANNELS 3 Xrotation Yrotation Zrotation
			JOINT Spine2
			{
				OFFSET 0.168000 16.242897 -1.435500
				CHANNELS 3 Xrotation Yrotation Zrotation
				JOINT Neck
				{
					OFFSET 0.217200 18.631500 -1.679100
					CHANNELS 3 Xrotation Yrotation Zrotation
					JOINT Head
					{
						OFFSET 0.000000 6.599396 1.385900
						CHANNELS 3 Xrotation Yrotation Zrotation
						JOINT Hat
						{
							OFFSET -0.532200 27.220596 -10.096100
							CHANNELS 3 Xrotation Yrotation Zrotation
							End Site
							{
								OFFSET 0.000000 22.029861 0.000000
							}
						}
						JOINT HairD
						{
							OFFSET -10.777400 17.437393 -1.325900
							CHANNELS 3 Xrotation Yrotation Zrotation
							JOINT HairD1
							{
								OFFSET -3.290299 -11.051193 1.062200
								CHANNELS 3 Xrotation Yrotation Zrotation
								End Site
								{
									OFFSET 0.000000 11.579437 0.000000
								}
							}
						}
						JOINT HairB
						{
							OFFSET -10.777400 17.437393 1.467900
							CHANNELS 3 Xrotation Yrotation Zrotation
							JOINT HairB1
							{
								OFFSET -1.561200 -12.956299 3.590200
								CHANNELS 3 Xrotation Yrotation Zrotation
								End Site
								{
									OFFSET 0.000000 13.534866 0.000000
								}
							}
						}
						JOINT HairA
						{
							OFFSET 9.713100 17.437393 1.467900
							CHANNELS 3 Xrotation Yrotation Zrotation
							JOINT HairA1
							{
								OFFSET 1.561200 -12.956299 3.590200
								CHANNELS 3 Xrotation Yrotation Zrotation
								End Site
								{
									OFFSET 0.000000 13.534866 0.000000
								}
							}
						}
						JOINT HairC
						{
							OFFSET 9.713100 17.437393 -1.325900
							CHANNELS 3 Xrotation Yrotation Zrotation
							JOINT HairC1
							{
								OFFSET 3.290300 -11.051193 1.062200
								CHANNELS 3 Xrotation Yrotation Zrotation
								End Site
								{
									OFFSET 0.000000 11.579437 0.000000
								}
							}
						}
					}
				}
				JOINT LeftShoulder
				{
					OFFSET 5.101800 15.108002 -2.763700
					CHANNELS 3 Xrotation Yrotation Zrotation
					JOINT LeftArm
					{
						OFFSET 9.825497 2.506317 -1.597400
						CHANNELS 3 Xrotation Yrotation Zrotation
						JOINT LeftForeArm
						{
							OFFSET 21.966244 0.000000 0.000000
							CHANNELS 3 Xrotation Yrotation Zrotation
							JOINT LeftHand
							{
								OFFSET 33.879036 0.000000 0.000000
								CHANNELS 3 Xrotation Yrotation Zrotation
								JOINT LeftHandThumb1
								{
									OFFSET 6.715286 -2.359680 3.363841
									CHANNELS 3 Xrotation Yrotation Zrotation
									JOINT LeftHandThumb2
									{
										OFFSET 2.507072 -1.447464 1.447461
										CHANNELS 3 Xrotation Yrotation Zrotation
										JOINT LeftHandThumb3
										{
											OFFSET 2.898338 -1.673355 1.673357
											CHANNELS 3 Xrotation Yrotation Zrotation
											End Site
											{
												OFFSET -0.295959 3.727692 -0.131651
											}
										}
									}
								}
								JOINT LeftHandIndex1
								{
									OFFSET 14.190811 -0.254547 3.840278
									CHANNELS 3 Xrotation Yrotation Zrotation
									JOINT LeftHandIndex2
									{
										OFFSET 3.551727 0.000000 -0.000000
										CHANNELS 3 Xrotation Yrotation Zrotation
										JOINT LeftHandIndex3
										{
											OFFSET 2.894196 0.000000 0.000000
											CHANNELS 3 Xrotation Yrotation Zrotation
											End Site
											{
												OFFSET -1.000603 2.690872 0.366626
											}
										}
									}
								}
								JOINT LeftHandMiddle1
								{
									OFFSET 13.776489 0.000000 0.000000
									CHANNELS 3 Xrotation Yrotation Zrotation
									JOINT LeftHandMiddle2
									{
										OFFSET 3.438232 0.000000 0.000000
										CHANNELS 3 Xrotation Yrotation Zrotation
										JOINT LeftHandMiddle3
										{
											OFFSET 3.691551 0.000000 0.000000
											CHANNELS 3 Xrotation Yrotation Zrotation
											End Site
											{
												OFFSET -1.082298 3.499527 0.457670
											}
										}
									}
								}
								JOINT LeftHandRing1
								{
									OFFSET 13.966164 -0.268127 -3.067488
									CHANNELS 3 Xrotation Yrotation Zrotation
									JOINT LeftHandRing2
									{
										OFFSET 3.162567 0.000000 0.000000
										CHANNELS 3 Xrotation Yrotation Zrotation
										JOINT LeftHandRing3
										{
											OFFSET 3.324348 0.000000 0.000000
											CHANNELS 3 Xrotation Yrotation Zrotation
											End Site
											{
												OFFSET -0.861900 3.184998 0.405154
											}
										}
									}
								}
								JOINT LeftHandPinky1
								{
									OFFSET 13.131393 -0.168503 -5.746925
									CHANNELS 3 Xrotation Yrotation Zrotation
									JOINT LeftHandPinky2
									{
										OFFSET 2.849182 0.000000 0.000000
										CHANNELS 3 Xrotation Yrotation Zrotation
										JOINT LeftHandPinky3
										{
											OFFSET 2.805038 0.000000 0.000000
											CHANNELS 3 Xrotation Yrotation Zrotation
											End Site
											{
												OFFSET -0.882500 2.642609 0.325652
											}
										}
									}
								}
							}
							JOINT Left_Sleeve
							{
								OFFSET 6.592125 -0.646545 0.805568
								CHANNELS 3 Xrotation Yrotation Zrotation
								End Site
								{
									OFFSET -0.000179 20.275787 -0.000000
								}
							}
						}
					}
				}
				JOINT RightShoulder
				{
					OFFSET -5.731700 15.108002 -2.763700
					CHANNELS 3 Xrotation Yrotation Zrotation
					JOINT RightArm
					{
						OFFSET -9.825497 2.506317 -1.597400
						CHANNELS 3 Xrotation Yrotation Zrotation
						JOINT RightForeArm
						{
							OFFSET -21.966242 0.000000 0.000000
							CHANNELS 3 Xrotation Yrotation Zrotation
							JOINT RightHand
							{
								OFFSET -33.879032 0.000000 0.000000
								CHANNELS 3 Xrotation Yrotation Zrotation
								JOINT RightHandThumb1
								{
									OFFSET -6.715286 -2.359680 3.363841
									CHANNELS 3 Xrotation Yrotation Zrotation
									JOINT RightHandThumb2
									{
										OFFSET -2.507072 -1.447464 1.447461
										CHANNELS 3 Xrotation Yrotation Zrotation
										JOINT RightHandThumb3
										{
											OFFSET -2.898338 -1.673355 1.673357
											CHANNELS 3 Xrotation Yrotation Zrotation
											End Site
											{
												OFFSET 0.295959 3.727692 -0.131651
											}
										}
									}
								}
								JOINT RightHandIndex1
								{
									OFFSET -14.190811 -0.254547 3.840278
									CHANNELS 3 Xrotation Yrotation Zrotation
									JOINT RightHandIndex2
									{
										OFFSET -3.551727 0.000000 -0.000000
										CHANNELS 3 Xrotation Yrotation Zrotation
										JOINT RightHandIndex3
										{
											OFFSET -2.894196 0.000000 0.000000
											CHANNELS 3 Xrotation Yrotation Zrotation
											End Site
											{
												OFFSET 1.000603 2.690872 0.366626
											}
										}
									}
								}
								JOINT RightHandMiddle1
								{
									OFFSET -13.776489 0.000000 0.000000
									CHANNELS 3 Xrotation Yrotation Zrotation
									JOINT RightHandMiddle2
									{
										OFFSET -3.438232 0.000000 0.000000
										CHANNELS 3 Xrotation Yrotation Zrotation
										JOINT RightHandMiddle3
										{
											OFFSET -3.691551 0.000000 0.000000
											CHANNELS 3 Xrotation Yrotation Zrotation
											End Site
											{
												OFFSET 1.082298 3.499527 0.457670
											}
										}
									}
								}
								JOINT RightHandRing1
								{
									OFFSET -13.966164 -0.268127 -3.067488
									CHANNELS 3 Xrotation Yrotation Zrotation
									JOINT RightHandRing2
									{
										OFFSET -3.162567 0.000000 0.000000
										CHANNELS 3 Xrotation Yrotation Zrotation
										JOINT RightHandRing3
										{
											OFFSET -3.324348 0.000000 0.000000
											CHANNELS 3 Xrotation Yrotation Zrotation
											End Site
											{
												OFFSET 0.861900 3.184998 0.405154
											}
										}
									}
								}
								JOINT RightHandPinky1
								{
									OFFSET -13.131393 -0.168503 -5.746925
									CHANNELS 3 Xrotation Yrotation Zrotation
									JOINT RightHandPinky2
									{
										OFFSET -2.849182 0.000000 0.000000
										CHANNELS 3 Xrotation Yrotation Zrotation
										JOINT RightHandPinky3
										{
											OFFSET -2.805038 0.000000 0.000000
											CHANNELS 3 Xrotation Yrotation Zrotation
											End Site
											{
												OFFSET 0.882500 2.642609 0.325652
											}
										}
									}
								}
							}
							JOINT Right_Sleeve
							{
								OFFSET -6.592125 -0.646545 0.805568
								CHANNELS 3 Xrotation Yrotation Zrotation
								End Site
								{
									OFFSET 0.000179 20.275787 -0.000000
								}
							}
						}
					}
				}
				JOINT Bind_Right_JacketString
				{
					OFFSET -3.534800 11.969597 7.200700
					CHANNELS 3 Xrotation Yrotation Zrotation
					JOINT Bind_Right_JacketString1
					{
						OFFSET -0.319900 -6.102600 2.794100
						CHANNELS 3 Xrotation Yrotation Zrotation
						End Site
						{
							OFFSET 0.000000 6.719452 0.000000
						}
					}
				}
				JOINT Bind_Left_JacketString
				{
					OFFSET 2.904800 11.969597 7.200700
					CHANNELS 3 Xrotation Yrotation Zrotation
					JOINT Bind_Left_JacketString1
					{
						OFFSET 0.364800 -5.904503 3.186800
						CHANNELS 3 Xrotation Yrotation Zrotation
						End Site
						{
							OFFSET 0.000000 6.719513 0.000000
						}
					}
				}
				JOINT HairE
				{
					OFFSET 5.915200 17.612701 -11.592200
					CHANNELS 3 Xrotation Yrotation Zrotation
					JOINT HairE1
					{
						OFFSET 0.289200 -7.171898 -1.284500
						CHANNELS 3 Xrotation Yrotation Zrotation
						End Site
						{
							OFFSET 0.000000 7.291756 0.000000
						}
					}
				}
				JOINT HairF
				{
					OFFSET -0.864800 17.612701 -11.592200
					CHANNELS 3 Xrotation Yrotation Zrotation
					JOINT HairF1
					{
						OFFSET 0.000000 -14.087097 -2.127501
						CHANNELS 3 Xrotation Yrotation Zrotation
						End Site
						{
							OFFSET 0.000000 14.246841 0.000000
						}
					}
				}
				JOINT HairG
				{
					OFFSET -8.087700 17.612701 -11.592200
					CHANNELS 3 Xrotation Yrotation Zrotation
					JOINT HairG1
					{
						OFFSET -0.293600 -6.081398 -0.910100
						CHANNELS 3 Xrotation Yrotation Zrotation
						End Site
						{
							OFFSET 0.000000 6.156120 0.000000
						}
					}
				}
			}
		}
	}
	JOINT Pouch
	{
		OFFSET 0.000000 4.394501 10.847300
		CHANNELS 3 Xrotation Yrotation Zrotation
		End Site
		{
			OFFSET 0.000000 21.880577 0.000000
		}
	}
	JOINT Bag
	{
		OFFSET -13.229000 4.813004 -0.593300
		CHANNELS 3 Xrotation Yrotation Zrotation
		End Site
		{
			OFFSET 0.000000 21.880577 0.000000
		}
	}
	JOINT OccupyGuyFacialAnim_Joint
	{
		OFFSET 1.000000 -70.206398 -1.655000
		CHANNELS 3 Xrotation Yrotation Zrotation
		End Site
		{
			OFFSET 0.000000 21.880577 0.000000
		}
	}
}
MOTION
Frames: 4
Frame Time: 0.033333
-0.179242 73.352264 0.396538 -3.823218 3.897200 -2.522413 0.000000 -0.000001 -0.000000 -16.127229 6.287855 12.948387 36.078972 -4.817279 -0.486618 5.572240 8.207804 -9.083609 0.000003 0.000002 -0.000001 -0.000000 0.000001 -0.000000 -11.875583 -4.047469 5.356700 34.023839 5.170705 0.568295 3.320767 -3.419373 -4.790827 -0.000003 0.000000 -0.000000 0.000002 -0.000000 0.000001 5.996838 0.221368 2.670962 -3.550192 0.586461 0.346679 -3.529471 0.741178 0.341944 2.003636 -0.186682 1.450073 2.162946 0.933402 -0.591238 -0.000000 0.000000 -0.000000 -0.000000 0.000000 -0.000000 -0.000000 0.000000 -0.000000 -0.000000 0.000000 -0.000000 -0.000000 0.000000 -0.000000 -0.000000 0.000000 -0.000000 -0.000000 0.000000 -0.000000 -0.000000 0.000000 -0.000000 -0.000000 0.000000 -0.000000 3.221915 -7.337636 -2.390025 -2.384428 17.419202 -78.265895 0.076726 -11.891438 -2.057947 -1.155683 2.633153 1.090645 10.755496 -0.286160 15.891606 -0.892059 26.398348 -5.952692 -0.000001 0.000003 0.000001 1.195361 0.651856 -5.025858 -1.788755 1.885803 -16.721707 0.000000 0.000001 -0.000002 -1.918256 4.431865 -9.350302 -0.028271 4.070517 -23.702138 -0.000001 0.000000 0.000002 -3.657948 10.858209 -6.841883 3.002655 3.441301 -29.220379 -0.000003 -0.000001 -0.000000 -4.049301 12.917670 -17.159273 8.436532 2.575104 -31.029314 -0.000001 0.000001 0.000001 -0.000001 -0.000001 -0.000001 3.343518 -0.133887 4.446276 4.390674 -6.186272 76.336523 -0.459191 16.016619 0.264722 -0.402363 -6.585486 -2.083669 15.801764 -2.797476 -17.234821 -2.089453 -31.112188 7.334251 -0.000000 0.000000 -0.000001 2.359360 -3.632949 8.321477 -2.161692 -2.442136 18.519901 0.000000 -0.000000 0.000004 -1.981336 -5.677419 13.541220 0.264135 -5.077065 26.891993 -0.000001 0.000000 -0.000003 -4.978779 -10.106190 10.692867 4.018056 -4.044485 33.181431 -0.000000 -0.000000 -0.000004 -6.469049 -11.330505 23.223960 10.718483 -2.553836 34.778627 -0.000000 0.000001 0.000001 0.000000 0.000001 -0.000001 0.000000 -0.000000 -0.000000 0.000000 -0.000001 -0.000000 0.000000 -0.000000 0.000000 0.000000 -0.000000 0.000000 0.000000 -0.000000 -0.000000 0.000000 -0.000001 -0.000000 0.000000 -0.000000 0.000000 0.000000 -0.000000 0.000000 0.000000 -0.000000 -0.000000 0.000000 -0.000001 -0.000000 0.000000 -0.000001 -0.000000 0.000000 -0.000001 -0.000000 0.000000 -0.000001 -0.000000 
-0.108902 73.352394 0.368063 -3.803988 3.779740 -2.516715 -0.000000 -0.000000 0.000000 -16.137751 6.286751 12.840248 36.113396 -4.656207 -0.463515 5.535294 8.204085 -9.061231 0.000001 0.000001 0.000000 0.000001 0.000001 -0.000000 -11.925819 -4.021934 5.245985 34.021719 5.315126 0.605591 3.331904 -3.406184 -4.764457 -0.000001 -0.000000 0.000000 -0.000001 0.000000 -0.000001 5.996552 0.237028 2.746977 -3.535676 0.565248 0.367365 -3.514769 0.723317 0.363799 2.001916 -0.121851 1.356692 2.203651 0.973719 -0.568939 -0.000000 0.000000 -0.000000 -0.000000 0.000000 -0.000000 -0.000000 0.000000 -0.000000 -0.000000 0.000000 -0.000000 -0.000000 0.000000 -0.000000 -0.000000 0.000000 -0.000000 -0.000000 0.000000 -0.000000 -0.000000 0.000000 -0.000000 -0.000000 0.000000 -0.000000 3.230197 -7.080242 -2.420056 -2.352062 17.271530 -78.324887 0.179753 -11.890377 -2.039335 -1.155562 2.609893 1.077269 10.753218 -0.286928 15.896198 -0.892100 26.398352 -5.952681 -0.000001 -0.000000 -0.000003 1.195346 0.651845 -5.025856 -1.788765 1.887203 -16.790009 0.000001 -0.000001 -0.000000 -1.918258 4.431959 -9.355985 -0.026150 4.071028 -23.774287 0.000001 -0.000001 0.000004 -3.658006 10.858336 -6.847687 3.002372 3.443064 -29.293469 -0.000001 -0.000001 -0.000000 -4.049140 12.917759 -17.164866 8.437497 2.576317 -31.099996 0.000001 -0.000000 0.000003 -0.000000 -0.000000 -0.000001 3.339355 0.048051 4.314695 4.417261 -6.247685 76.397435 -0.440903 16.040494 0.214243 -0.400496 -6.580197 -2.057195 15.795200 -2.766024 -17.226268 -2.112253 -31.077077 7.330848 -0.000000 0.000000 0.000003 2.359443 -3.632247 8.286130 -2.161697 -2.441415 18.484519 -0.000001 -0.000000 0.000000 -1.981508 -5.676809 13.504266 0.263015 -5.076836 26.854955 0.000000 0.000000 -0.000003 -4.978551 -10.105471 10.658465 4.018154 -4.043632 33.146829 0.000000 0.000000 -0.000004 -6.470118 -11.330042 23.185000 10.717903 -2.553200 34.739681 -0.000002 0.000000 -0.000003 0.000000 -0.000001 0.000000 -0.000000 0.000001 -0.000000 -0.000000 0.000000 -0.000000 -0.000000 0.000001 -0.000000 -0.000000 0.000001 -0.000000 -0.000000 0.000001 -0.000000 -0.000000 0.000000 -0.000000 -0.000000 0.000001 -0.000000 -0.000000 0.000001 -0.000000 -0.000000 0.000001 -0.000000 -0.000000 0.000000 -0.000000 -0.000000 -0.000000 0.000000 -0.000000 -0.000000 0.000000 -0.000000 -0.000000 0.000000 
-0.021985 73.350632 0.353034 -3.771165 3.633940 -2.541621 -0.000000 -0.000000 0.000000 -16.166971 6.295098 12.762439 36.187582 -4.473435 -0.451388 5.457495 8.193848 -9.020405 0.000002 0.000001 -0.000000 -0.000002 0.000000 0.000001 -12.003131 -3.929272 5.193448 34.051123 5.366418 0.599283 3.338148 -3.394663 -4.687165 0.000000 0.000000 -0.000000 0.000003 0.000000 -0.000001 5.995405 0.272132 2.837880 -3.519988 0.566105 0.380495 -3.498549 0.726849 0.376693 2.020800 -0.122384 1.348014 2.209840 0.984574 -0.611174 -0.000000 0.000000 0.000000 -0.000000 0.000000 0.000000 -0.000000 0.000000 0.000000 -0.000000 0.000000 0.000000 -0.000000 0.000001 0.000000 -0.000000 0.000000 0.000000 -0.000000 0.000001 0.000000 -0.000000 0.000000 0.000000 -0.000000 0.000000 0.000000 3.216080 -7.077705 -2.451159 -2.314866 17.281378 -78.372992 0.292746 -11.888734 -2.025120 -1.149420 2.561718 1.002493 10.752635 -0.292940 15.917865 -0.900418 26.402784 -5.955402 -0.000000 -0.000000 0.000000 1.195779 0.656264 -5.037791 -1.788753 1.891170 -16.988571 0.000001 -0.000000 -0.000000 -1.918135 4.432327 -9.378175 -0.024054 4.072740 -23.984190 -0.000001 0.000000 0.000001 -3.659672 10.857203 -6.870240 3.001481 3.448195 -29.506199 -0.000001 -0.000000 0.000001 -4.048572 12.918086 -17.186677 8.440420 2.579839 -31.305694 -0.000000 0.000001 0.000001 -0.000001 0.000000 0.000000 3.332441 0.107401 4.266990 4.441342 -6.277263 76.401410 -0.357893 16.052058 0.174554 -0.396287 -6.566714 -2.021828 15.784963 -2.671969 -17.205028 -2.181567 -30.977087 7.321815 0.000001 -0.000001 0.000003 2.359692 -3.630172 8.183736 -2.161742 -2.439363 18.382175 -0.000000 -0.000001 0.000000 -1.982114 -5.675012 13.397215 0.259772 -5.076240 26.747649 0.000001 -0.000000 -0.000001 -4.977972 -10.103375 10.558754 4.018460 -4.043877 33.046842 0.000001 -0.000000 -0.000002 -6.473267 -11.328679 23.072024 10.716244 -2.553494 34.627048 -0.000001 0.000000 -0.000001 0.000000 0.000000 -0.000001 0.000000 0.000000 -0.000000 0.000000 -0.000000 -0.000000 0.000000 0.000000 0.000000 0.000000 0.000000 0.000000 0.000000 0.000000 -0.000000 0.000000 -0.000000 -0.000000 0.000000 0.000000 0.000000 0.000000 0.000000 0.000000 0.000000 0.000000 -0.000000 0.000000 -0.000000 -0.000000 -0.000000 -0.000000 0.000000 -0.000000 -0.000000 0.000000 -0.000000 -0.000000 0.000000 
0.094623 73.349487 0.354352 -3.719544 3.497529 -2.589867 -0.000000 -0.000000 0.000000 -16.207726 6.262455 12.668418 36.293064 -4.252591 -0.436776 5.344836 8.172303 -8.964092 0.000002 0.000000 -0.000001 0.000001 -0.000002 -0.000000 -12.096143 -3.760148 5.180640 34.090628 5.320988 0.552452 3.336752 -3.380307 -4.538468 0.000001 0.000000 0.000000 0.000001 0.000000 -0.000000 5.982415 0.315578 2.941204 -3.514220 0.575454 0.381646 -3.491977 0.738098 0.377406 2.091061 -0.168594 1.397018 2.176816 0.971743 -0.680336 -0.000000 0.000000 0.000000 -0.000000 0.000000 0.000000 -0.000000 0.000000 0.000000 -0.000000 0.000000 -0.000000 -0.000000 0.000000 -0.000000 -0.000000 0.000000 -0.000000 -0.000000 0.000000 -0.000000 -0.000000 0.000000 0.000000 -0.000000 0.000000 0.000000 3.199455 -7.135191 -2.466633 -2.262413 17.248601 -78.428945 0.341343 -11.903102 -2.024121 -1.142415 2.527308 0.930612 10.751671 -0.302711 15.953041 -0.916417 26.401114 -5.962325 0.000001 -0.000001 0.000000 1.196912 0.668386 -5.057323 -1.791013 1.897681 -17.308208 -0.000001 0.000000 -0.000000 -1.917988 4.435175 -9.414257 -0.025534 4.075647 -24.322118 0.000000 -0.000001 -0.000001 -3.664504 10.853217 -6.906781 3.000081 3.456446 -29.848893 -0.000001 -0.000000 -0.000001 -4.057025 12.913995 -17.220703 8.445094 2.585515 -31.637030 -0.000001 0.000001 -0.000001 -0.000002 0.000001 -0.000002 3.325241 0.078165 4.286478 4.488687 -6.264337 76.350901 -0.220397 16.071801 0.157200 -0.345899 -6.470840 -2.033476 15.724081 -2.645107 -17.143486 -2.292446 -30.816909 7.307663 -0.000001 -0.000001 0.000002 2.311715 -3.748967 8.017474 -2.161754 -2.437891 18.218157 -0.000000 0.000000 0.000002 -2.029022 -5.801177 13.213985 0.254680 -5.076661 26.575841 0.000000 -0.000000 -0.000001 -5.026937 -10.228807 10.380056 4.018890 -4.043969 32.886610 0.000000 0.000001 -0.000005 -6.523337 -11.453518 22.869842 10.713593 -2.553739 34.446652 -0.000001 0.000001 -0.000003 -0.000000 0.000001 -0.000001 -0.000000 -0.000000 -0.000000 -0.000000 -0.000000 -0.000000 -0.000000 -0.000000 -0.000000 -0.000000 -0.000000 -0.000000 -0.000000 -0.000000 -0.000000 -0.000000 -0.000000 -0.000000 -0.000000 -0.000000 -0.000000 -0.000000 -0.000000 -0.000000 -0.000000 -0.000000 -0.000000 -0.000000 -0.000000 -0.000000 -0.000000 -0.000000 0.000000 -0.000000 -0.000000 0.000000 -0.000000 -0.000000 0.000000 
